PathFileType	4	(X/Y/Z)	D:\TRACE\v60_Jaco2_6-2-23\ArmBodyNoDRS1-v60.trc
DataRate	CameraRate	NumFrames	NumMarkers	Units	OrigDataRate	OrigDataStartFrame	OrigNumFrames
100.00	100.00	      38	9	mm	100.00	3991	      5320
Frame#	Time	front left toe			Front right toe			aft left toe			aft right toe			Arm			FL body			FR body			AL Body			AR Body			
		X1	Y1	Z1	X2	Y2	Z2	X3	Y3	Z3	X4	Y4	Z4	X5	Y5	Z5	X6	Y6	Z6	X7	Y7	Z7	X8	Y8	Z8	X9	Y9	Z9	

3991	39.900	-119.97053	19.67844	-345.82751	241.68652	47.96477	-389.45813	-67.61554	44.25041	269.02170	309.88287	16.59534	239.00880	85.43884	1112.19849	-725.07922	-29.44029	578.84357	-494.57504	129.42603	579.69385	-509.84641	66.98608	567.31512	444.89743	221.24005	556.33185	431.75955	
3992	39.910	-119.97034	19.68943	-345.85373	241.88036	40.86740	-389.03238	-67.83096	37.49463	268.93777	309.83148	16.58368	238.99123	85.38225	1112.27759	-725.10492	-30.13447	579.03729	-494.84903	128.09370	579.43408	-509.38095	66.94653	567.32898	444.83765	221.18445	556.39551	431.49542	
3993	39.920	-119.96496	19.66763	-345.82181	242.24983	34.60248	-388.53336	-67.92379	31.06745	269.01190	309.84418	16.58823	238.99586	85.27038	1112.23633	-725.22156	-30.92080	579.07007	-494.91327	127.64832	579.39185	-509.53238	66.75162	567.04169	444.22159	220.11372	556.28278	431.26276	
3994	39.930	-119.98144	19.60824	-345.81152	242.27324	28.34611	-388.10190	-68.66042	24.56282	269.05362	309.87305	16.60702	239.00208	85.16901	1112.12878	-725.28394	-31.13753	579.02808	-494.80957	127.14378	579.50183	-509.57367	66.79238	567.27136	444.69498	220.15858	556.21765	431.03000	
3995	39.940	-120.00243	19.47779	-345.68750	242.17542	21.55570	-388.22357	-69.29478	17.47431	268.66031	309.82132	16.58299	238.96562	84.98766	1112.01233	-725.38287	-31.50288	579.17059	-495.02835	126.78973	579.99524	-510.28201	66.59122	566.97681	444.03049	221.14574	556.22815	430.86325	
3996	39.950	-119.88902	19.42375	-345.65771	242.10822	19.73036	-389.81046	-70.12941	15.47268	266.67413	309.89059	16.60272	239.02098	84.86893	1112.04028	-725.39636	-31.95010	579.31567	-495.12524	126.52596	580.38470	-510.87686	66.55870	567.14612	444.38705	221.10789	556.12531	430.57831	
3997	39.960	-119.86671	19.50016	-345.83682	242.23898	18.10162	-390.57059	-70.77830	13.49097	266.67892	309.70676	16.60157	238.96582	84.71796	1112.33606	-725.50275	-32.90324	579.75818	-495.38846	125.87134	580.78882	-511.02634	66.05679	567.47363	443.79788	221.00256	556.62866	430.32748	
3998	39.970	-119.68916	19.84092	-345.88229	242.46629	18.26824	-390.20129	-70.79898	14.26132	267.32959	309.34222	17.04622	238.74118	84.50917	1112.90503	-725.78058	-33.77460	580.41284	-495.52237	124.54409	580.95508	-510.56738	66.83443	569.63000	445.41727	220.65973	557.94623	430.20627	
3999	39.980	-119.58423	22.44612	-346.07523	242.14587	17.86179	-389.75067	-70.02713	12.88886	267.69595	308.58060	19.30185	238.91444	84.23052	1113.91370	-726.45935	-34.33830	581.16821	-495.36713	123.80186	582.22986	-511.01318	66.27560	570.52997	444.83279	220.66388	558.71600	429.67490	
4000	39.990	-116.46541	26.09373	-343.69739	241.71759	18.14895	-390.11053	-70.15215	12.75299	267.60669	306.10382	22.32391	242.52133	83.39378	1114.64526	-726.68762	-34.91900	582.25916	-495.68005	123.61936	583.47302	-511.72644	66.52177	571.19263	444.47391	220.77988	559.13177	429.32379	
4001	40.000	-113.19491	30.29226	-340.36649	241.54030	17.93573	-390.22250	-70.17052	12.73773	267.60394	303.10477	26.35249	246.11067	82.59584	1115.33240	-726.86267	-35.72976	582.84955	-495.94144	122.93841	584.06024	-512.17181	66.42734	571.53009	444.10422	220.86531	559.36676	428.86301	
4002	40.010	-111.49100	39.11188	-339.51834	241.36803	17.65303	-390.31677	-70.11606	12.70389	267.52731	299.72232	34.75941	247.41978	81.43677	1116.28137	-726.57361	-36.46330	583.02606	-496.29935	122.53226	584.14465	-512.54254	66.26401	571.59802	443.83569	220.80908	559.75317	428.54501	
4003	40.020	-111.12639	47.75792	-338.51324	243.21466	18.23077	-389.97302	-70.03848	12.70320	267.52148	298.11392	44.65154	247.01338	80.66125	1117.07837	-726.25409	-36.69579	582.70654	-496.34113	122.23407	584.10425	-512.79169	65.80431	571.58954	443.54807	220.57974	559.86865	428.38730	
4004	40.030	-112.15166	59.07408	-340.41547	243.17047	18.16003	-389.79556	-70.10146	12.68960	267.58850	298.23367	55.54824	245.20337	79.71896	1117.27478	-726.31018	-36.79861	582.55463	-496.61475	122.08080	583.97278	-512.94250	65.26676	571.25256	443.42447	220.30148	559.49994	428.16437	
4005	40.040	-114.39918	70.05811	-341.81879	243.18562	18.05302	-389.81216	-70.28596	12.61333	267.56680	300.04355	66.86408	242.73212	78.89548	1116.63916	-726.52850	-36.80746	582.27948	-496.85202	121.92509	583.89728	-512.96497	64.70689	569.75983	441.72134	218.15298	558.74927	428.17844	
4006	40.050	-117.22201	82.18186	-343.83264	243.20325	17.88223	-389.84433	-70.55200	12.45567	267.44257	301.30664	78.38739	240.47336	78.05080	1115.91833	-726.54034	-36.80441	581.81952	-496.90176	121.76115	583.72559	-513.02753	63.79955	569.34381	442.12485	216.32628	558.38000	428.11832	
4007	40.060	-118.84608	93.53684	-344.96509	243.24408	17.70699	-389.88373	-70.71587	12.26601	267.41479	302.30374	89.83834	238.94585	77.90097	1115.36255	-726.51666	-37.16293	581.21533	-496.89691	121.48018	583.47540	-513.10449	62.42594	568.26263	441.94693	216.41576	557.71478	428.10828	
4008	40.070	-120.44380	104.75105	-346.00510	243.24779	17.56814	-389.94540	-70.72510	12.21726	267.45142	301.73950	100.37019	237.46281	77.76262	1115.15955	-726.45520	-37.43024	580.95764	-497.11475	121.04288	583.04724	-512.98840	62.39062	568.18439	441.92963	215.74579	557.45026	428.24838	
4009	40.080	-121.26511	115.04002	-346.65714	243.24350	17.62099	-389.93948	-70.70121	12.33021	267.42218	301.28723	111.15878	236.69563	77.70592	1115.21960	-726.38873	-37.74266	580.46387	-497.35788	120.48845	582.29944	-512.68097	62.12580	567.90759	441.95389	215.64430	557.35052	428.25705	
4010	40.090	-122.39333	124.68999	-347.11823	243.21031	17.57214	-389.87717	-70.68136	12.31003	267.42499	300.81598	121.21354	236.32872	77.59894	1115.05298	-726.37933	-37.82965	580.04791	-497.37631	120.50289	582.05426	-512.96191	61.80765	567.76538	442.01965	215.48073	557.30463	428.31201	
4011	40.100	-123.85036	132.88852	-347.34509	243.23808	17.60836	-389.79721	-70.72356	12.09495	267.50531	299.07324	129.80800	235.70317	77.23667	1114.41711	-726.39795	-38.39446	579.07776	-497.12225	120.16116	581.51514	-513.16187	61.22238	567.69714	442.06070	216.68889	557.50757	428.38608	
4012	40.110	-125.54659	139.45050	-347.02161	243.28691	17.60994	-389.69876	-70.89337	11.71013	267.59143	298.20654	137.46283	235.05556	76.65414	1113.41541	-726.51135	-38.64995	578.59595	-497.02765	120.11184	580.76898	-512.54944	60.42036	567.61737	442.21207	214.29858	557.39740	428.50131	
4013	40.120	-126.94669	145.71236	-347.08936	243.14304	17.65954	-389.56387	-70.95429	11.53803	267.71875	299.07935	143.76543	234.42542	76.27745	1112.60913	-726.69409	-38.83208	578.21173	-496.81265	119.79859	580.51801	-512.43658	59.74839	567.67969	442.54114	213.50540	557.33368	428.86862	
4014	40.130	-129.58382	150.36108	-347.18826	243.05960	17.80767	-389.42670	-70.94513	11.56794	267.77063	298.97742	147.57953	234.10884	75.66075	1111.69714	-726.94684	-38.83786	577.87164	-496.64908	119.17337	579.56079	-511.32581	59.10414	567.64264	442.20276	211.77591	557.79419	429.10925	
4015	40.140	-131.36357	152.22345	-346.43973	242.94981	17.78928	-389.34073	-70.94353	11.64453	267.82169	299.17337	149.05984	234.11554	75.17115	1110.95764	-727.25739	-38.88503	577.41486	-496.56119	118.75231	579.24799	-511.14771	58.60234	567.82611	442.26550	211.40796	558.05963	429.42639	
4016	40.150	-133.21230	151.15607	-345.93329	243.19073	17.86648	-389.15967	-70.92638	11.66553	267.84296	299.39648	148.03320	234.53682	74.98450	1110.35840	-727.48877	-39.15930	576.74609	-496.33792	119.59014	579.18884	-511.81598	58.15944	568.33942	443.02423	210.93036	557.97162	429.61899	
4017	40.160	-134.43367	147.58763	-345.50073	243.06047	17.73849	-389.23969	-70.99337	11.49812	267.75668	297.60214	144.57443	234.97774	75.26512	1109.93140	-727.44775	-39.25721	576.28259	-496.15753	119.30620	578.76263	-511.55725	58.05000	568.36450	443.04178	210.35403	558.26447	429.97409	
4018	40.170	-135.53488	142.74648	-344.45886	242.87988	17.67680	-389.26001	-71.07150	11.38643	267.76688	298.06061	140.91486	235.50801	75.36124	1109.62476	-727.38409	-39.67117	575.83783	-496.01059	118.92880	578.48914	-511.29669	56.96885	568.48260	443.37402	209.98651	558.33649	430.08398	
4019	40.180	-135.85558	138.08369	-344.82962	242.86139	17.70344	-389.16183	-71.06271	11.31660	267.86041	295.45572	135.45601	235.45380	75.12839	1109.40479	-727.35028	-39.92022	575.48804	-495.91739	118.68619	578.34131	-511.14462	56.64079	568.49481	443.47412	209.35448	558.35590	430.19775	
4020	40.190	-136.78343	132.83421	-344.89120	243.07823	17.84902	-389.04749	-71.06972	11.24211	267.92554	295.81769	130.00851	235.62694	74.68877	1109.24524	-727.23444	-39.88174	575.47174	-495.94360	118.68188	578.25800	-511.11798	56.04086	568.45123	443.58456	208.54723	558.22919	430.37415	
4021	40.200	-138.09253	127.51704	-345.47226	242.93188	17.76785	-389.10474	-71.17033	11.27138	267.85025	295.20987	123.75908	235.23174	74.34978	1109.28699	-727.22437	-39.91301	575.45599	-495.99789	118.64292	578.26501	-511.07159	55.49867	568.30054	443.63477	208.04283	558.19775	430.45731	
4022	40.210	-139.36285	121.46154	-346.26169	243.07700	17.83375	-388.98776	-71.29903	11.22176	267.75143	293.35117	116.80125	234.59291	74.21864	1109.26465	-727.24243	-39.93575	575.35388	-495.98358	118.57398	578.17859	-511.04401	54.68552	568.05353	443.70056	207.46486	558.13391	430.59323	
4023	40.220	-141.31020	115.06635	-347.65912	242.96106	17.72307	-389.08490	-71.33231	11.20271	267.80640	292.21689	109.59626	233.86102	73.94051	1109.31421	-727.19482	-39.97134	575.27661	-495.95013	118.62219	578.12292	-510.94531	53.97830	567.71405	443.28525	206.67758	558.01221	430.77972	
4024	40.230	-142.25208	108.04406	-348.56656	243.03030	17.79413	-389.00134	-71.20516	11.07827	267.79642	291.32492	102.02289	233.45288	73.92915	1109.26135	-727.02521	-40.05266	575.24707	-496.00159	118.59433	578.05420	-510.77686	53.36901	567.86536	443.90579	206.15007	557.96082	430.93005	
4025	40.240	-143.06792	100.99728	-349.37897	242.93806	17.75783	-389.04871	-71.25598	10.99091	267.79089	289.39166	94.14742	233.14211	73.86394	1109.28894	-726.99902	-40.15202	575.23798	-496.06482	118.42632	578.05414	-510.76685	52.20992	567.68085	443.64206	205.66211	557.95953	431.06326	
4026	40.250	-143.96457	93.26305	-350.02209	243.04152	17.84804	-388.95279	-71.32242	10.96120	267.68866	287.56107	85.70516	232.54149	73.88371	1109.35083	-726.91785	-40.35241	575.13123	-496.12863	118.41637	578.12567	-510.84219	51.73018	567.86761	443.69000	205.08527	557.96606	431.16415	
4027	40.260	-144.58176	85.22957	-350.42609	243.02971	17.80283	-388.99225	-71.30921	10.92511	267.64767	286.14520	77.60176	232.41530	74.06610	1109.41211	-726.89935	-40.54796	575.12140	-496.27020	118.36861	578.07867	-510.84494	51.35566	567.91528	443.72021	203.63792	558.06989	431.35794	
4028	40.270	-145.38951	76.87920	-350.42133	243.11551	17.82376	-388.92044	-71.33987	10.92319	267.67032	285.70465	69.66907	232.59181	74.28971	1109.37390	-726.89899	-40.74946	575.16101	-496.38034	118.29237	577.93329	-510.74237	50.85487	568.02356	443.82468	203.52588	557.85101	431.21906	
